<svg width="228" height="36" viewBox="0 0 228 36" fill="none" xmlns="http://www.w3.org/2000/svg">
<path d="M0.227273 35V0.0909081H21.1591V3.84091H4.45455V15.6364H19.5909V19.3864H4.45455V35H0.227273ZM52.7482 0.0909081H56.9755V23.2045C56.9755 25.5909 56.413 27.7216 55.288 29.5966C54.1744 31.4602 52.6005 32.9318 50.5664 34.0114C48.5323 35.0795 46.146 35.6136 43.4073 35.6136C40.6687 35.6136 38.2823 35.0795 36.2482 34.0114C34.2141 32.9318 32.6346 31.4602 31.5096 29.5966C30.396 27.7216 29.8391 25.5909 29.8391 23.2045V0.0909081H34.0664V22.8636C34.0664 24.5682 34.4414 26.0852 35.1914 27.4148C35.9414 28.733 37.0096 29.7727 38.396 30.5341C39.7937 31.2841 41.4641 31.6591 43.4073 31.6591C45.3505 31.6591 47.021 31.2841 48.4187 30.5341C49.8164 29.7727 50.8846 28.733 51.6232 27.4148C52.3732 26.0852 52.7482 24.5682 52.7482 22.8636V0.0909081ZM66.8573 35V0.0909081H78.6527C81.38 0.0909081 83.6186 0.556817 85.3686 1.48864C87.1186 2.40909 88.4141 3.67614 89.255 5.28977C90.0959 6.90341 90.5164 8.73864 90.5164 10.7955C90.5164 12.8523 90.0959 14.6761 89.255 16.267C88.4141 17.858 87.1243 19.108 85.3857 20.017C83.647 20.9148 81.4255 21.3636 78.7209 21.3636H69.1755V17.5455H78.5845C80.4482 17.5455 81.9482 17.2727 83.0845 16.7273C84.2323 16.1818 85.0618 15.4091 85.5732 14.4091C86.0959 13.3977 86.3573 12.1932 86.3573 10.7955C86.3573 9.39773 86.0959 8.17614 85.5732 7.13068C85.0505 6.08523 84.2152 5.27841 83.0675 4.71023C81.9198 4.13068 80.4027 3.84091 78.5164 3.84091H71.0845V35H66.8573ZM83.2891 19.3182L91.88 35H86.9709L78.5164 19.3182H83.2891ZM99.6353 0.0909081L109.999 29.4773H110.408L120.772 0.0909081H125.204L112.385 35H108.022L95.2035 0.0909081H99.6353ZM130.513 35H126.081L138.899 0.0909081H143.263L156.081 35H151.649L141.217 5.61364H140.945L130.513 35ZM132.149 21.3636H150.013V25.1136H132.149V21.3636ZM190.64 0.0909081V35H186.549L167.527 7.59091H167.186V35H162.959V0.0909081H167.049L186.14 27.5682H186.481V0.0909081H190.64ZM201.971 35H197.539L210.357 0.0909081H214.721L227.539 35H223.107L212.676 5.61364H212.403L201.971 35ZM203.607 21.3636H221.471V25.1136H203.607V21.3636Z" fill="#111111"/>
</svg>
